<svg xmlns="http://www.w3.org/2000/svg" xmlns:xlink="http://www.w3.org/1999/xlink" width="1323.26" height="276.66" viewBox="0 0 1323.26 276.66"><defs><clipPath id="clip-path"><path d="M1099.76,223.34c3.22,1.66,5.79,3,6.88,3.46,4.18,13.53,6.66,34.42,6.66,34.42l-.4,15.11h-78.21l-1.06-12.06s-.53-22.35,1.06-37.59c1.21-.66,3.56-1.85,6.32-3.27C1059.26,245.39,1087.4,239.53,1099.76,223.34Z" style="fill:none"/></clipPath><clipPath id="clip-path-2"><path d="M615.36,225.7c14.08,6.34,23.28,12.41,27,20.32,4.09,8.63,14.69,30.32,14.69,30.32H632.5l-5.07-8-3.66,8h-106s7.42-22.9,11.18-30.28c3.42-6.72,10.15-17.5,20.06-21.17C565.85,237.48,587.82,240.41,615.36,225.7Z" style="fill:none"/></clipPath><clipPath id="clip-path-3"><path d="M431.78,229.63c6.17,0,17.47-13,24.12-23.43l11.57,5.5s-11.84,49.64-4,64.63H359.8c5.76-17.5-.52-66.87-.52-66.87s9.43-3.84,14.66-5.7c2.37,12.53,10.54,27.1,17.12,27.1S425.61,229.63,431.78,229.63Z" style="fill:none"/></clipPath><clipPath id="clip-path-4"><path d="M428.17,149.08l.94,44.58,38.36,18c4.48,2.1,7.68,2.65,13.78,6.67s3.91,58,3.91,58H337.41s2.22-46,3.91-50.3,8.78-12.53,13.82-14.78,42-16.28,42-16.28l6.2-38.76Z" style="fill:none"/></clipPath><clipPath id="clip-path-5"><path d="M1216.26,187.58l-2.62,15.9-26.35,7.07a32.19,32.19,0,0,0-23.22,24.76l-8.3,41.34h25.17l5.18-23.9.93,23.9h94.2l1.44-24.25,4.31,24.25h26.25L1303.93,235a32.19,32.19,0,0,0-23.51-24.17l-30-7.61L1248.58,188l-9.12,1.5-.33,18.84L1225.88,190Z" style="fill:none"/></clipPath></defs><title>Artboard 61</title><g style="isolation:isolate"><g id="Layer_1" data-name="Layer 1"><circle cx="895.96" cy="159.41" r="65.07" style="fill:#6d401b"/><path d="M903.37,181s2,30.63,4,32.72,26.22,14.71,30.21,16.57c7.31,3.41,15.12,9.36,18,15.75,3.95,8.69,14.69,30.32,14.69,30.32H945.65l-5.07-8-3.66,8h-106s7.42-22.9,11.18-30.28c3.42-6.72,9.05-15.26,16.62-19.37,4.31-2.34,23-11.39,23.58-13.6s3-32.11,3-32.11Z" style="fill:#d5b386"/><path d="M883.46,57A53.26,53.26,0,0,1,823,134.24,57.31,57.31,0,1,0,883.46,57Z" style="fill:#6d401b"/><path d="M883.28,204.31a42.63,42.63,0,0,0,21.9-2.1c-1-9.45-1.8-21.23-1.8-21.23H885.25S884.17,194.77,883.28,204.31Z" style="fill:#a7815f;opacity:0.81"/><path d="M845.67,147.32a8.45,8.45,0,1,1-5.84-2.34" style="fill:none;stroke:#ff0;stroke-miterlimit:10;stroke-width:1.13504939820597px"/><circle cx="881.64" cy="141.63" r="45.83" style="fill:#d5b386"/><circle cx="878.46" cy="138.45" r="42.64" style="fill:#ddc497"/><circle cx="897.28" cy="126.07" r="5.71" style="fill:#3d2722"/><circle cx="854.51" cy="126.07" r="5.71" style="fill:#3d2722"/><path d="M890.12,144.12a14.52,14.52,0,1,1-29,0Z" style="fill:#e7e9eb"/><path d="M890.12,82.8A53,53,0,0,0,883.46,57a57.22,57.22,0,0,0-64.14,56.89A57.15,57.15,0,0,0,823,134.24,53.26,53.26,0,0,0,890.12,82.8Z" style="fill:#6d401b"/><circle cx="925.43" cy="138.08" r="11.81" style="fill:#ddc497"/><path d="M932.65,147.32a8.45,8.45,0,1,1-5.84-2.34" style="fill:none;stroke:#ff0;stroke-miterlimit:10;stroke-width:1.13504939820597px"/><path d="M937.53,230.27c7.31,3.41,15.12,9.36,18,15.75,3.95,8.69,14.69,30.32,14.69,30.32H945.65l-5.07-8-3.66,8h-106s7.42-22.9,11.18-30.28c3.42-6.72,9.05-15.26,16.62-19.37C863,224.34,933.55,228.41,937.53,230.27Z" style="fill:#00d1bd"/><circle cx="1068.58" cy="159.41" r="65.07" style="fill:#e6d821"/><circle cx="1047.55" cy="97.07" r="29" style="fill:#e6d821"/><circle cx="1030.6" cy="131.19" r="29" style="fill:#e6d821"/><circle cx="1021.91" cy="165.25" r="29" style="fill:#e6d821"/><circle cx="1034.61" cy="188" r="29" style="fill:#e6d821"/><circle cx="1046.84" cy="204.03" r="29" style="fill:#e6d821"/><circle cx="1087.55" cy="205.54" r="29" style="fill:#e6d821"/><circle cx="1104.31" cy="187.46" r="29" style="fill:#e6d821"/><circle cx="1115.05" cy="163.93" r="29" style="fill:#e6d821"/><circle cx="1120.38" cy="140.23" r="29" style="fill:#e6d821"/><circle cx="1120.73" cy="106.95" r="29" style="fill:#e6d821"/><circle cx="1107.9" cy="83.53" r="29" style="fill:#e6d821"/><circle cx="1077.23" cy="79.07" r="29" style="fill:#e6d821"/><path d="M1079.35,181s2,30.63,4,32.72,26.22,14.71,30.21,16.57c7.31,3.41,15.12,9.36,18,15.75,3.95,8.69,14.69,30.32,14.69,30.32h-24.59l-8.34-15.11-.4,15.11h-78.21l-1.06-12.06L1028,276.34h-21.15s7.42-22.9,11.18-30.28c3.42-6.72,9.05-15.26,16.62-19.37,4.31-2.34,23-11.39,23.58-13.6s3-32.11,3-32.11Z" style="fill:#755d56"/><path d="M1081.07,57a53.26,53.26,0,0,0,60.42,77.23A57.31,57.31,0,1,1,1081.07,57Z" style="fill:#e6d821"/><path d="M1081.41,204.33a44.75,44.75,0,0,1-7.15.56,42.06,42.06,0,0,1-14.83-2.36c.59-7.84,1.75-21.55,1.75-21.55h18.12S1080.52,194.78,1081.41,204.33Z" style="fill:#604d49"/><circle cx="1082.89" cy="141.63" r="45.83" style="fill:#755d56"/><circle cx="1086.08" cy="138.45" r="42.64" style="fill:#806e63"/><circle cx="1067.25" cy="126.07" r="5.71" style="fill:#3d2722"/><circle cx="1110.03" cy="126.07" r="5.71" style="fill:#3d2722"/><path d="M1074.41,144.12a14.52,14.52,0,0,0,29,0Z" style="fill:#e7e9eb"/><path d="M1074.41,82.8A53,53,0,0,1,1081.07,57a57.22,57.22,0,0,1,64.14,56.89,57.15,57.15,0,0,1-3.73,20.34,53.26,53.26,0,0,1-67.08-51.43Z" style="fill:#e6d821"/><circle cx="1039.1" cy="138.08" r="11.81" style="fill:#806e63"/><circle cx="1039.1" cy="138.08" r="4.5" style="fill:#755d56"/><path d="M1099.76,223.34c3.22,1.66,5.79,3,6.88,3.46,4.18,13.53,6.66,34.42,6.66,34.42l-.4,15.11h-78.21l-1.06-12.06s-.53-22.35,1.06-37.59c1.21-.66,3.56-1.85,6.32-3.27C1059.26,245.39,1087.4,239.53,1099.76,223.34Z" style="fill:#ff9eff"/><g style="clip-path:url(#clip-path)"><circle cx="1044.75" cy="254.87" r="3.84" style="fill:#fff;opacity:0.5"/><circle cx="1063.94" cy="251.48" r="3.84" style="fill:#fff;opacity:0.5"/><circle cx="1074.25" cy="262.77" r="3.84" style="fill:#fff;opacity:0.5"/><circle cx="1055.97" cy="269.55" r="3.84" style="fill:#fff;opacity:0.5"/><circle cx="1086.04" cy="276.09" r="3.84" style="fill:#fff;opacity:0.5"/><circle cx="1096.43" cy="260.52" r="3.84" style="fill:#fff;opacity:0.5"/><circle cx="1085.1" cy="249.01" r="3.84" style="fill:#fff;opacity:0.5"/><circle cx="1100.67" cy="243.14" r="3.84" style="fill:#fff;opacity:0.5"/><circle cx="1093.45" cy="230.27" r="3.84" style="fill:#fff;opacity:0.5"/><circle cx="1073.42" cy="237.27" r="3.84" style="fill:#fff;opacity:0.5"/><circle cx="1048.29" cy="234.11" r="3.84" style="fill:#fff;opacity:0.5"/><circle cx="1033.54" cy="238.85" r="3.84" style="fill:#fff;opacity:0.5"/><circle cx="1034.89" cy="270.45" r="3.84" style="fill:#fff;opacity:0.5"/><circle cx="1111.42" cy="271.58" r="3.84" style="fill:#fff;opacity:0.5"/></g><path d="M591.32,181.69s2,30.63,4,32.72,25.11,14,29.09,15.86c7.31,3.41,15.12,9.36,18,15.75,3.95,8.69,14.69,30.32,14.69,30.32H632.5l-5.07-8-3.66,8h-106s7.42-22.9,11.18-30.28c3.42-6.72,9.05-15.26,16.62-19.37,4.31-2.34,21.35-10,22-12.23s3-32.11,3-32.11Z" style="fill:#755d56"/><path d="M568.37,207.21a46.08,46.08,0,0,0,25.2-.57c-1.28-9.72-2.25-24.95-2.25-24.95l-20.83.66S569.28,197.69,568.37,207.21Z" style="fill:#604d49"/><circle cx="598.07" cy="74.72" r="25.24" style="fill:#e7e9eb"/><path d="M577.92,72.26a53.26,53.26,0,0,0,60.42,77.23,57.31,57.31,0,1,1-60.42-77.23Z" style="fill:#e7e9eb"/><circle cx="539.68" cy="145.59" r="11.81" style="fill:#806e63"/><line x1="532.26" y1="153.5" x2="536.97" y2="158.47" style="fill:none;stroke:#49a8f6;stroke-linecap:round;stroke-miterlimit:10;stroke-width:2.83762349551491px"/><line x1="532.26" y1="153.5" x2="532.26" y2="161.04" style="fill:none;stroke:#49a8f6;stroke-linecap:round;stroke-miterlimit:10;stroke-width:2.83762349551491px"/><circle cx="579.97" cy="149.25" r="45.83" style="fill:#755d56"/><circle cx="576.78" cy="146.06" r="42.64" style="fill:#806e63"/><circle cx="595.6" cy="133.68" r="5.71" style="fill:#3d2722"/><circle cx="552.83" cy="133.68" r="5.71" style="fill:#3d2722"/><path d="M588.45,151.73a14.52,14.52,0,0,1-29,0Z" style="fill:#e7e9eb"/><circle cx="622.05" cy="149.1" r="11.81" style="fill:#806e63"/><path d="M615.36,225.7c14.08,6.34,23.28,12.41,27,20.32,4.09,8.63,14.69,30.32,14.69,30.32H632.5l-5.07-8-3.66,8h-106s7.42-22.9,11.18-30.28c3.42-6.72,10.15-17.5,20.06-21.17C565.85,237.48,587.82,240.41,615.36,225.7Z" style="fill:#49a8f6"/><path d="M571.25,98.05a53,53,0,0,1,6.66-25.79,57.22,57.22,0,0,1,64.14,56.89,57.15,57.15,0,0,1-3.73,20.34,53.26,53.26,0,0,1-67.08-51.43Z" style="fill:#e7e9eb"/><line x1="532.26" y1="153.5" x2="527.15" y2="158.65" style="fill:none;stroke:#49a8f6;stroke-linecap:round;stroke-miterlimit:10;stroke-width:2.83762349551491px"/><line x1="625.32" y1="157.71" x2="625.32" y2="165.25" style="fill:none;stroke:#49a8f6;stroke-linecap:round;stroke-miterlimit:10;stroke-width:2.83762349551491px"/><line x1="625.32" y1="157.71" x2="620.21" y2="162.86" style="fill:none;stroke:#49a8f6;stroke-linecap:round;stroke-miterlimit:10;stroke-width:2.83762349551491px"/><line x1="625.32" y1="157.71" x2="630.02" y2="162.68" style="fill:none;stroke:#49a8f6;stroke-linecap:round;stroke-miterlimit:10;stroke-width:2.83762349551491px"/><path d="M601.62,217.47c0,5.89-9.08,10.66-20.29,10.66S561,223.36,561,217.47" style="fill:none;stroke:#ff0;stroke-linecap:round;stroke-linejoin:round;stroke-width:1.23823565458185px"/><g style="clip-path:url(#clip-path-2)"><circle cx="548.91" cy="227.21" r="7.16" style="fill:#e7e9eb"/><circle cx="560.09" cy="233.68" r="7.16" style="fill:#e7e9eb"/><circle cx="573.02" cy="237" r="7.16" style="fill:#e7e9eb"/><circle cx="586.12" cy="237.69" r="7.16" style="fill:#e7e9eb"/><circle cx="598.88" cy="235.07" r="7.16" style="fill:#e7e9eb"/><circle cx="609.01" cy="229.83" r="7.16" style="fill:#e7e9eb"/><circle cx="615.6" cy="223.37" r="7.16" style="fill:#e7e9eb"/></g><polygon points="479.05 24.52 425.75 67.97 458.87 90.05 479.05 24.52" style="fill:#1f2733"/><polygon points="442.93 -0.78 413.19 61.22 452.55 67.1 442.93 -0.78" style="fill:#1f2733"/><polygon points="404.96 -1.02 392.54 66.61 432.07 61.95 404.96 -1.02" style="fill:#1f2733"/><polygon points="373.19 5.91 374.01 74.66 411.9 62.5 373.19 5.91" style="fill:#1f2733"/><polygon points="337.44 36.25 372.52 95.39 399.25 65.91 337.44 36.25" style="fill:#1f2733"/><polygon points="313.7 88.73 378.21 112.53 380.38 72.8 313.7 88.73" style="fill:#1f2733"/><polygon points="313.75 130.71 380.75 136.37 365.44 99.63 313.75 130.71" style="fill:#1f2733"/><polygon points="333.12 169.18 396.15 145.8 366.68 119.06 333.12 169.18" style="fill:#1f2733"/><circle cx="462.62" cy="110.47" r="9.26" style="fill:#b0866d"/><circle cx="464.89" cy="120.86" r="2.58" style="fill:none;stroke:#000;stroke-miterlimit:10;stroke-width:0.567524699102983px"/><circle cx="464.89" cy="123.44" r="2.58" style="fill:none;stroke:#000;stroke-miterlimit:10;stroke-width:0.567524699102983px"/><circle cx="464.89" cy="126.03" r="2.58" style="fill:none;stroke:#000;stroke-miterlimit:10;stroke-width:0.567524699102983px"/><circle cx="464.89" cy="128.61" r="2.58" style="fill:none;stroke:#000;stroke-miterlimit:10;stroke-width:0.567524699102983px"/><circle cx="464.89" cy="131.2" r="2.58" style="fill:none;stroke:#000;stroke-miterlimit:10;stroke-width:0.567524699102983px"/><circle cx="464.89" cy="133.78" r="2.58" style="fill:none;stroke:#000;stroke-miterlimit:10;stroke-width:0.567524699102983px"/><circle cx="464.89" cy="136.37" r="2.58" style="fill:none;stroke:#000;stroke-miterlimit:10;stroke-width:0.567524699102983px"/><circle cx="464.89" cy="138.95" r="2.58" style="fill:none;stroke:#000;stroke-miterlimit:10;stroke-width:0.567524699102983px"/><circle cx="464.89" cy="141.54" r="2.58" style="fill:none;stroke:#000;stroke-miterlimit:10;stroke-width:0.567524699102983px"/><circle cx="464.89" cy="144.12" r="2.58" style="fill:none;stroke:#000;stroke-miterlimit:10;stroke-width:0.567524699102983px"/><circle cx="464.89" cy="146.71" r="2.58" style="fill:none;stroke:#000;stroke-miterlimit:10;stroke-width:0.567524699102983px"/><circle cx="464.89" cy="149.29" r="2.58" style="fill:none;stroke:#000;stroke-miterlimit:10;stroke-width:0.567524699102983px"/><circle cx="464.89" cy="151.88" r="2.58" style="fill:none;stroke:#000;stroke-miterlimit:10;stroke-width:0.567524699102983px"/><path d="M428.17,149.08l.94,44.58,38.36,18c4.48,2.1,7.68,2.65,13.78,6.67s3.91,58,3.91,58H337.41s2.22-46,3.91-50.3,8.78-12.53,13.82-14.78,42-16.28,42-16.28l6.2-38.76Z" style="fill:#b0866d"/><path d="M400.42,174.77a51.83,51.83,0,0,0,28.29-.24l-.54-25.45-24.78,7.15Z" style="fill:#755243"/><circle cx="414.13" cy="107.92" r="51.57" style="fill:#8c6653"/><circle cx="417.72" cy="104.33" r="47.99" style="fill:#b0866d"/><path d="M402.33,108.7a16.35,16.35,0,1,0,32.69,0Z" style="fill:#e7e9eb"/><path d="M431.78,229.63c6.17,0,17.47-13,24.12-23.43l11.57,5.5s-11.84,49.64-4,64.63H359.8c5.76-17.5-.52-66.87-.52-66.87s9.43-3.84,14.66-5.7c2.37,12.53,10.54,27.1,17.12,27.1S425.61,229.63,431.78,229.63Z" style="fill:#1f2733"/><circle cx="441.77" cy="91.11" r="6.35" style="fill:#3d2722"/><circle cx="398.57" cy="91.11" r="6.35" style="fill:#3d2722"/><g style="clip-path:url(#clip-path-3)"><g style="opacity:0.7000000000000001"><path d="M433.33,178.92c.1-.24,0,.07.14-.17a15.08,15.08,0,0,1-.45,1.78c-.13.33-.18.24-.1-.19A13.26,13.26,0,0,1,433.33,178.92Z" style="fill:#fff"/><path d="M434.54,174.9c0,.2-.15.63-.24,1s-.15.39-.15.3C434.24,175.68,434.65,174.26,434.54,174.9Z" style="fill:#fff"/><polygon points="398.39 237.01 398.25 237.03 398.29 236.78 398.42 236.76 398.39 237.01" style="fill:#fff"/><path d="M400.06,233.4l.46,0c.29.48-.33,1-1,1.31C399.69,234.35,399.41,233.74,400.06,233.4Z" style="fill:#fff"/><path d="M432.68,232.17c0-.11,0-.44-.06-.44l.19-.51c0-1.59.28-.55.34-1.45.25.25.35.71.49,2.17,0,1.55-.09,1.44-.11,3-.19-.11-.15,2.83-.46,1.71-.21.67-.25-.81-.45-.55.12,0,0-.84,0-1.23l-.1-.32a5.87,5.87,0,0,0,0-1.93C432.58,232.93,432.63,232.34,432.68,232.17Z" style="fill:#fff"/><path d="M402.2,272.62a.6.6,0,0,1,.42-.48c.3.09.34.15.29.45C402.63,272.62,402.31,273,402.2,272.62Z" style="fill:#fff"/><path d="M386.1,274.39a.47.47,0,0,1-.07-.57c.27.06.61-.16.76.11S386.39,274.5,386.1,274.39Z" style="fill:#fff"/><path d="M378.12,277.36c0-.44-.12-1.13.5-1.27a.86.86,0,0,1,1.29.37c.54.37-.2.74-.13,1.09C379.17,277.91,378.69,277.56,378.12,277.36Z" style="fill:#fff"/><path d="M384.11,274.6c-.06-.12-.17-.23-.08-.37a.75.75,0,0,1,.65-.07C384.84,274.43,384.38,274.87,384.11,274.6Z" style="fill:#fff"/><path d="M397.57,265.37c0-.18-.06-.36.12-.57.35,0,.59-.32.93-.1C398.93,265.23,398,265.75,397.57,265.37Z" style="fill:#fff"/><path d="M384.22,269.58c-.29-.26.22-.39.31-.57a.33.33,0,0,1,.27.56C384.58,269.72,384.42,269.64,384.22,269.58Z" style="fill:#fff"/><path d="M393.94,262.82c0-.22.35-.23.55-.31s.19.26.33.37C394.63,263.21,393.92,263.21,393.94,262.82Z" style="fill:#fff"/><path d="M388.23,264.59a.57.57,0,0,1,.68-.42c.05.21.32.37,0,.55S388.49,264.62,388.23,264.59Z" style="fill:#fff"/><path d="M392.85,262.46c.21-.39-.75-.93.32-1.06,0,.39.84.54.4,1.07C393.39,262.45,393.09,262.58,392.85,262.46Z" style="fill:#fff"/><path d="M413.61,275.4c1-.88,1,.37,1.26.68l-.18,1C414,276.86,413.28,276.35,413.61,275.4Z" style="fill:#fff"/><polygon points="413.93 275.83 414.47 275.71 414.12 276.28 414.39 275.77 413.93 275.83" style="fill:#fff"/><path d="M414.2,229.71l-.14.76c-1,.81-1.38-1.45-1.61-2.92l0-1.2C413.37,226.28,414.13,227.64,414.2,229.71Z" style="fill:#fff"/><polygon points="413.98 272.9 413.9 273.23 413.69 273.11 413.98 272.9" style="fill:#fff"/><path d="M413.08,270.33a2.34,2.34,0,0,1,.2-.62.82.82,0,0,1,.82-.08,1.46,1.46,0,0,1,.32,1.57l.15,0c.14,0-.21,0-.33,0-.31.18,0,.32,0,.46C413.64,271.44,413,271,413.08,270.33Z" style="fill:#fff"/><path d="M413.9,270.43l-.09.25c.43-.1,0,0,.13.19C414,270.43,413.6,271,413.9,270.43Z" style="fill:#fff"/><path d="M414.08,268a1.25,1.25,0,0,1-1-1.37c.11-.3.31-.76.74-.65s1,.54,1,1.08c-.42.42,0,.71,0,1.06C414.49,268.28,414.5,267.46,414.08,268Z" style="fill:#fff"/><polygon points="413.75 267.52 413.84 267.38 413.88 267.44 413.75 267.52" style="fill:#fff"/><path d="M433.9,250.9c0-.14.25-.18.38-.28.68-.16.62.33.65.6-.4.32.27.15,0,.46C434.54,251.48,433.72,251.5,433.9,250.9Z" style="fill:#fff"/><path d="M413.56,247.86c.11-.09,0-.17.16-.27a1.76,1.76,0,0,1,1.16-.14l.6.52c-.08.05-.17,0-.29,0l-.12.34A1.37,1.37,0,0,1,413.56,247.86Z" style="fill:#fff"/><polygon points="417.22 252.79 417.44 253 417.31 252.96 417.22 252.79" style="fill:#fff"/><path d="M411,242.3l-.29,0c-.18.1,0,.17,0,.27-.79-.1-.87-.48-1.37-.82a1.62,1.62,0,0,1,.43-.48,2.12,2.12,0,0,1,.83-.41c.67-.19.7.11,1,.19.29.23-.39.68.15.89h-.16l-.67.71C411,242.48,410.81,242.39,411,242.3Z" style="fill:#fff"/><polygon points="358.21 266.55 358.22 267.05 358.01 266.62 358.21 266.55" style="fill:#fff"/><path d="M361.09,265.28c-.28-.19.57.1.44.28l.27-.84,0,1Z" style="fill:#fff"/><path d="M361.09,265c-.27,0-.28-.34-.39-.44.17-.24.19-.52.59-.55.24,0,.19.26.31.36-.22-.07-.3-.23-.56-.29a.58.58,0,0,0,0,.79c.13,0,.13-.09.21-.16l.3.33-.4-.2Z" style="fill:#fff"/><path d="M356.39,264.24l-.06.12.06-.12.45.34C356.84,264.35,356.6,264.32,356.39,264.24Z" style="fill:#fff"/><path d="M391.5,248.51c-.07-.87-1.6-1.64-.75-2.68a1,1,0,0,1,1.41.33c.37.78-.4,1.51-.43,2.29Z" style="fill:#fff"/><path d="M415.78,237c.1-.28,0-.62.75-.82s.6.13.88.21c.1.21-.24.44-.34.66-.19,0-.38,0-.41.11C416.14,237.08,416.11,237.2,415.78,237Z" style="fill:#fff"/><path d="M373.1,248.75a1.2,1.2,0,0,1,.59-1.12c.52-.13.77.08.82.39a5.37,5.37,0,0,0,.09.74.8.8,0,0,1-.23.67C373.6,249.68,373.53,249,373.1,248.75Z" style="fill:#fff"/><path d="M419.32,235.59c-.26-.13-.53.17-.61.11s.23-.17.29-.2l.16-.07c.31.07.25.35-.11.5C419.07,235.84,419.43,235.72,419.32,235.59Z" style="fill:#fff"/><path d="M345.46,253.08c-.24-.53,0-1,.36-1.47.52-.13,1.25-.17,1.23.4S346.16,253.81,345.46,253.08Z" style="fill:#fff"/><path d="M357.75,249.25c-.19,0-.23.15-.32.24-.54-.09-.1-.51,0-.65a9.94,9.94,0,0,1-.43-1.76,2.3,2.3,0,0,1,.11-.92,2.09,2.09,0,0,1,.22-.46l.17-.23,0-.06.14-.07.3-.14c.4-.11.6-.1.64,0s.13.1.22.17a1,1,0,0,1,.24.24c0,.65,0,1.32,0,2l-.1-.09a8.89,8.89,0,0,1-1.14,2.35C357.83,249.64,357.95,249.36,357.75,249.25Z" style="fill:#fff"/><path d="M380.41,243.84c.23,0,.39-.15.59-.24l-.15,0v-.15l.15,0c0,.1,0,.12.09.14.35-.24.46-.52,0-.58-.18.75-1,.18-1.28.62a2.11,2.11,0,0,1-.09-.92.7.7,0,0,1,.29-.5,4.49,4.49,0,0,1,1-.42c.17,0,.25.06.28.15s0,.1,0,.15l.16.14c-.11.35.1.77.18,1.12,0-.06.06-.16-.08-.2l-.15,0-.12.59c-.14-.07-.44.16-.58,0l-.25.47C380.45,244.08,380.6,243.88,380.41,243.84Z" style="fill:#fff"/><path d="M436.48,231.46a1.28,1.28,0,0,1,1,0c.44.2-.65.51-.14.66C436.85,232,436.13,231.77,436.48,231.46Z" style="fill:#fff"/><path d="M380.63,243.24c0-.16.23.12.13.13l-.14,0Z" style="fill:#fff"/><path d="M380.22,243a2.94,2.94,0,0,0,.59-.36l.24.09c0-.1.2-.09.34-.11l-.5.38c-.28,0-.32-.26-.67,0l.33.1C380.36,243.16,380.31,243,380.22,243Z" style="fill:#fff"/><path d="M421.25,269.68l-.07-.84c0-.32.6,1.94.65-.06.38,1.39,1.16,1.87,1.2,4,.07,0,.14.3.21.11l-.12-.73c.38.25.89,0,1.15,1.12a2.28,2.28,0,0,1-.06,1c-.79,1.4-1.21-3-2-.14-.44.21-1.06-.5-1.32-1.41l-.5-.06c.36.2.23-1,.37-1.36l-.27-.33.28-.33-.17-1.11C420.7,269.75,421,270.21,421.25,269.68Z" style="fill:#fff"/><path d="M420.57,232c.3-.25,0-.6,1-.73s.42.32.82.46c.06.16-.48.24-.32.41l-.09,0C421.66,232.14,420.4,232.38,420.57,232Z" style="fill:#fff"/><path d="M366.31,241.38a1.51,1.51,0,0,1-.24-1.61c.22-.06.42-.37.62-.14.74.39.35,1.19.25,1.74C366.81,241.07,366.5,241.46,366.31,241.38Z" style="fill:#fff"/><polygon points="366.51 240.65 366.59 241.16 366.5 241.17 366.51 240.65" style="fill:#fff"/><path d="M427.51,229c-.09.2-.43,0-.58,0-.07-.16-.3-.46.32-.59s.45.17.76.28l-.32.35Z" style="fill:#fff"/><polygon points="427.39 228.93 427.44 228.73 427.75 228.84 427.65 228.81 427.38 229.01 427.15 228.93 427.39 228.93" style="fill:#fff"/><path d="M409.93,225.59a.45.45,0,0,1,0-.19.33.33,0,0,1,0-.09v0a.61.61,0,0,0,0,.27h0l0,0Z" style="fill:#fff"/><path d="M409.9,225.48v.07a.59.59,0,0,1,0-.22s0,0,0,0h0l-12,32.34v0l0,.07-3.12,4.44-1.59,2.27-.4.58-.1.14s-.08.11-.06.1v0l0,.15a.86.86,0,0,1-.16.46.77.77,0,0,1-.16.16s-.31.31.27-.44l2.93-4,1.74-2.4.11-.15.06-.08,12.46-33.69h0a.6.6,0,0,0,0,.27A.41.41,0,0,1,409.9,225.48Z" style="fill:#fff"/><path d="M362.69,231.54a1.87,1.87,0,0,1-.47-2,1.24,1.24,0,0,1,1.13-.92,1.33,1.33,0,0,1,1.25.83c.14.49-.24.84.14,1.24-1.11-.39-.24,1.25-1.12.66l-.23.38C363.36,231.45,362.93,231.34,362.69,231.54Z" style="fill:#fff"/><path d="M379.65,230.3l-.08-.09h.09V230l.23.06-.34.4S379.7,230.36,379.65,230.3Z" style="fill:#fff"/><path d="M401.83,246.7l.17-.45-1.53,2.3-.89,1.32-.47.69-.12.18c0,.06-.09.13-.07.11l0,0c.15.17.36.32.51.5a1.77,1.77,0,0,1,.31,1.73c-.35,1.31-.94.78-1.48.74,0-.35-.09-.45-.22-.5l-.2-.06s0,0,0,0L398,253l.35-.51.73-1.06c.34-.53-.22.26-.45.55,1.87-2.75,2.19-3.26,2.48-3.74l.24-.39.16-.25.1-.15.05-.08,0,0h0l8.16-22.06h0v0h0v0h0l-7.75,21h0l0,.06-.09.13Z" style="fill:#fff"/><path d="M379.67,228.34c.43,0,.44.43.54.52l-.19.88-.32-.23c.61.16.45-.39.51-.49-.19,0-.32-.22-.56-.16-.69.26-.18.72-.2,1l-.1-.06-.17.56C379,229.65,378.63,228.76,379.67,228.34Z" style="fill:#fff"/><path d="M418.64,208.62s0,.12,0,.19l-.14.34,0-.32C418.57,208.74,418.61,208.73,418.64,208.62Z" style="fill:#fff"/><path d="M409.2,244.88c-.06.09,0,.21-.07.37l-.26.11c0,.21.23-.51.16-.9C409,244.77,409.16,244.73,409.2,244.88Z" style="fill:#fff"/><path d="M422.6,211l0,0-.12.37C422.45,211.36,422.51,211,422.6,211Z" style="fill:#fff"/><path d="M422.67,211.51c.17-.22,0,0-.05.06l0,.34.22-.18,0-.2,0,.2c.08,0,.13-.36.19-.5,0-.33-.17-.14-.31,0v-.14c.24-.24.31.14.43.5a3.14,3.14,0,0,1-.14.73c-.32.36-.39-.2-.43-.77Z" style="fill:#fff"/><polygon points="422.67 212.25 422.68 212.11 422.81 211.93 422.67 212.25" style="fill:#fff"/><path d="M417.91,259.55a2.92,2.92,0,0,1-.22,1.86c-.16-.15-.36.24-.52.1,0-.13.25-1.07,0-1,.1.54-.24.59-.39.47l.2-.14c0-.59-.2-.45-.26-1l.2-.14-.07-.69C417.2,259.13,417.6,258.78,417.91,259.55Z" style="fill:#fff"/><path d="M421.61,226.17c.25.3.57.07.44,1.44-.13.69-.39.79-.53.76l-.3-.57.05-.06,0-.78.05-.06v-.45C421.45,226.62,421.63,226.46,421.61,226.17Z" style="fill:#fff"/><path d="M421.85,227c0-.3-.1-.27-.12-.39s.13-.09.18-.08a4,4,0,0,1-.23,1.16c-.16.2-.21-.47-.31-.34C421.61,227.43,421.63,226.46,421.85,227Z" style="fill:#fff"/><path d="M421.74,227.41s-.08,0-.09.17l0,.17-.06-.12,0-.17,0,.07,0-.51Z" style="fill:#fff"/><path d="M415,260.93a3,3,0,0,1-.14.84c-.27.39-.47,0-.69-.32.18-.1.19.33.41-.05l.05-.78c-.12.17-.29.21-.28-.13C414.61,260.38,414.92,260.28,415,260.93Z" style="fill:#fff"/><path d="M423.8,223.86l-.05.5-.23.15s.07,0,.09-.16v-.24l-.24.39c0-.34,0-.28-.07-.4l.08.15.05-.23v.18l.19-.47-.27-.52C423.52,223.41,423.74,223.25,423.8,223.86Z" style="fill:#fff"/><path d="M424.11,231.08s-.08.17-.12.35a2,2,0,0,0,.11.84l.12-.37c0-.54-.15,0-.08-.59s.2.4.3.61c-.1,1-.31.68-.39.42-.18,0-.12-.75-.17-1.12C423.92,231.21,424.08,230.75,424.11,231.08Z" style="fill:#fff"/><path d="M425.58,237.3a7,7,0,0,1,0,2.15,1.9,1.9,0,0,1-.19.66,4.23,4.23,0,0,1-.06,2.18c-.67.18-.8-2.56-.91-3.72l.16-.27-.07-.56C424.92,236.83,425.29,236.54,425.58,237.3Z" style="fill:#fff"/><path d="M439.4,243.43v.15c0-.54,0-.91,0-1.4,0-.1,0-.24,0,0v.19c0-.31,0-.49,0-1.11v0c0-.44,0-1.82,0-2.2,0-1.64,0-.83.06-1.3,0,.52,0,.46,0,.7l.06,2.51c0,.73,0,1.17,0,1.88a7.9,7.9,0,0,1,.08,1.22c0,1.4,0,2.27,0,3.58a9.93,9.93,0,0,0,0,1.24v.44c0-1.53,0-.28-.07-.25v.2c0-.39,0-.55,0-1l0,.49V248l0-.34s0-.36,0-.55a2.82,2.82,0,0,0,0-.34v-.59a6,6,0,0,1,0-.89l0,.44v-.56c0-.16,0-.17,0,.05v-.41l0,.38C439.41,244.62,439.44,243.74,439.4,243.43Z" style="fill:#fff"/><polygon points="423.77 251.97 423.79 251.84 423.89 252.02 423.87 252.15 423.77 251.97" style="fill:#fff"/><path d="M426.31,251.56a.5.5,0,0,1-.08.22c.07-.16,0-.9-.07-.67C426.22,251,426.36,251.13,426.31,251.56Z" style="fill:#fff"/><path d="M427.46,254.45v-.23c0-.08.21,0,.18-.54.48-.27.3,2.9.84,1.9.12,1.2.5,1.35.45,2.78-.08,1-.38,1.16-.62,1.1l-.37-.27c0-.21,0-.46-.08-.47l-.15-.26c.19-.67-.18-.66-.2-1.34l0,.08c.07-1-.23-.88-.23-1.77l-.09-.39C427.25,254.59,427.38,254.68,427.46,254.45Z" style="fill:#fff"/><path d="M439.36,271.27c-.2-.23.35,0,.05-.5.32.12.25-.51.48-.54l-.06-.12c.52.47.36-1.17,1.19-.28.17-.35.34-.19.5,0s.42.55.24.22a5,5,0,0,0,0,2.25,6.33,6.33,0,0,0,.15.78.67.67,0,0,1-.09.72l-.24.35c-.18-.83-.39.87-.67,0-.25,0-.39.29-.68.12a.47.47,0,0,0,.08-.34c-.16-.29-.38-.17-.52-.28l.05-.34-.36-.39c.08,0,.08-.17.08-.33l-.23-.18C439.13,271.7,439.77,272,439.36,271.27Z" style="fill:#fff"/><path d="M439.56,267.87c0-.48,0-.38,0-1,0-.38,0-.92.06-.56s0,1,0,1.61,0,.37,0,.87a4.47,4.47,0,0,1-.06-.86Z" style="fill:#fff"/><path d="M439.65,264.14c0,.27,0,.44,0,.8,0,0,0,0,0-.51Z" style="fill:#fff"/><path d="M440.1,276.2c0-.49,0-.7,0-1V275c0,.15,0-.3,0,0,0-.39,0-1.16,0-1.13,0-.65,0-.68,0-1.08s0,.61.07,0c0-1.95.08-.24.09-1.28,0,0,0-.35,0,.29,0,0,0-.39,0-.5,0,.11.07,1.64.08,1.39l0,.85c0,.09,0,.62,0,.78,0,1,.05.77,0,1.57a5.79,5.79,0,0,0,0,.71c0,.16,0-.17,0,.32.06.82,0,1.43.05,2.74,0-.29,0,.2,0,.57v.36c0-.51,0,1,0,1.11,0,.39-.09-.79-.09.84,0,.51-.07-1.72-.09-.38v.63c0-.53,0-1,0-1.39a8.22,8.22,0,0,0,0,.89,14.31,14.31,0,0,0,0-1.77l0,.66c0-.45,0-1.13,0-1.5,0-.82,0,.6,0-.07,0-.31,0-.52,0-1l-.06-.36C440.12,277.89,440.07,276.63,440.1,276.2Z" style="fill:#fff"/><path d="M440.4,290.12c0-.09,0-.22,0-.12,0-.8.07-1.72,0-2.71.19-.23.05-2.43.45-2.12.21-.27,0-1.33.39-.75a1.46,1.46,0,0,0,.08-.68c.43.19,1-.15,1.55-.2.36-.49.72-.86,1.07-.88.14-.17.24-.21.33-.18a.31.31,0,0,1,.12.07h0a1.31,1.31,0,0,0,0-.15l0-.23-.09-.91-.18-1.82-.86-8.79-.29-3-.16-1.7-.09-.9,0-.46L441.83,233h0v0h0l.84,31.76v.08l0,.34.06.67-.08-.83v-.17h0L441.83,233h0v.06s0,.09,0,.14v.31c0,.19,0,.29,0,0l0,.25a5.78,5.78,0,0,0,0-.73V233h0l.94,35.68v.18l.08.83.17,1.74.75,7.72.81,8.35.2,2.09c0,.25,0,.14,0,.18v0l0,0-.09.18a2.13,2.13,0,0,0-.29,1.36c-.77.64-.59,1.94-.95,2.94h-.12l-.16-.21-.34.71c-.06-.3.08-.66-.13-.78-.54.11-.78.75-1,1.38a1,1,0,0,1,.06-.59c-.25-.6-.36.5-.56.41v-.4l-.22.1,0-.26c-.17-.74-.29.17-.37.25a5.21,5.21,0,0,0,0-1.15c0-.23-.08-.46-.11-.69,0,.25,0,.29,0,.32l0-1.28c-.06-.55-.06.89-.07.5C440.43,292,440.37,291.06,440.4,290.12Z" style="fill:#fff"/><path d="M439.72,242.25c0,.25,0,.57,0,.91,0,.92,0,.72,0,.42Z" style="fill:#fff"/><path d="M438.84,214.8c0-.21,0,0,0,0,0,.34,0,.86,0,1.13s0-.22,0-.26Z" style="fill:#fff"/><path d="M443,273.47c.29-.12.6-.76.82-.36a5.31,5.31,0,0,1-.41,1.71l-.33.42c-.25-.12.62-1.48-.05-1.13l-.2.87A3.38,3.38,0,0,1,443,273.47Z" style="fill:#fff"/><path d="M441.83,233.32v.24a8,8,0,0,1-.31,1.74c-.17.5-.12.34-.13.37v0c0,.1.06-.15,0,0s.1-.27.15-.46.06-.18.1-.39a7.09,7.09,0,0,0,.15-.88v.1c0-.1,0-.39,0-.59v.15c0-.17,0-.31,0-.48V233h0l.17,6.57v0l-.17-6.55h0v.31Z" style="fill:#fff"/><path d="M441.47,235.39l-.08.22,0,.06v0h0l2.26-4.75-.05.12-.11.26-.25.54a20,20,0,0,1-1.14,2l-.5.74-.63.86L440,237c-.68,1.06-1.38,2.1-2,3l-.11.17,0,0h0v0l0,0,.05-.09c-.1.11-.09.19-.16.33.49-.22-.07.65.07.95s-.7.9-.43,1.23c-.91.47-.84,1.37-1.89,2,0,0-.12,0-.06-.18-.19,0-.46.42-.54.63-.08-.06,0-.27.06-.41-.32.37-.42.38-.48.32s0,0,0,0h0l.46-.61,1-1.39c1.31-1.81,2.42-3.46,3.22-4.66l.53-.8.72-1.12a13.36,13.36,0,0,1,.78-1.17,20.42,20.42,0,0,0,1.95-3.13q.24-.49.46-1l-2.23,4.66,2.14-4.47-2.16,4.5v0l.09-.25,0,.12.05-.15Z" style="fill:#fff"/><path d="M436.53,249.74a.59.59,0,0,0,.22-.75,1,1,0,0,0,.51-.39c.11-.24-.11-.22-.15-.32.29-.16.37.55.71,0l0-.3.46,0,.11-.51c.09.2.65.31,1-.22l.25-.59c.08,0,.07.12,0,.22.35.14.59-.92.79-.37.37-.69,1.1-1,1.33-1.44.12.28.38-.17.56-.23s0,.29.18.34c.41-.53.09.33.47,0,.12.28,0,.94.47.8-.66.34-.26.89-.5,1.29.56.28.48-.8,1-.79-.13.66-1,1-.38,1.57L444,248c0,.26-.37.93.25.8l-.12.8.4.13c0,.17-.32.23-.15.47s.38.06.56,0a.93.93,0,0,0-.11,1.15l.29.08a2.65,2.65,0,0,1,.35.12l-.48.85c2,.92-.65.57,1.43,1.71-1-.22-1,.07-.58.5a4.65,4.65,0,0,0,.37.33l.1.08.05,0,.18.09.77.37a21.73,21.73,0,0,0,2.65,1,21,21,0,0,1-3.17-.89l-.61-.22-.18,0c-.1,0-.18,0-.21.09-.25.07-.3.16-.22.28a.84.84,0,0,0,.21.19l.17.1.62.27a32.27,32.27,0,0,0,5.29,1.54,23.3,23.3,0,0,1-3.64-.75c-.6-.17-1.19-.37-1.77-.59l-1-.38c-.59.07-.31.66-.12,1.09l.69.29.78.29a4.33,4.33,0,0,1-1.52-.33l-.91-.12c-.55-.06-.85,0,.19.71a2,2,0,0,0-.88-.26c-.82.06.92,1,.81,1.3A9.43,9.43,0,0,1,443,258a4.74,4.74,0,0,0-1-.61.49.49,0,0,0-.56.16l-.41,1.08-.27-1.18a1.71,1.71,0,0,0-1.26-.16,2.68,2.68,0,0,0-.66.53,1.12,1.12,0,0,1-1.63.25c.34-.46-.08-.88-.35-1-.54-.39-1,.54-1.42,0a.84.84,0,0,0-.49-1.46c-.37,0-.62.5-.89.42.16-.33,1-.54.91-1.18h-.58A1.14,1.14,0,0,0,435,254h-.41c.18-.18.59-.25.44-.57l-.46-.09c.13-.23.41-.08.49-.41s.1-.63-.25-.46c-.2,0,.56-.27.34-.71l-.23-.18c.26-.13.59-.06.83-.59l-.43-.34c.2-.1.44,0,.59-.33l-.22-.5C435.95,249.86,436.19,250.12,436.53,249.74Z" style="fill:#fff"/><path d="M439.12,251.17c0-.16-.07-1.07-.05,0s0,3,.08,2.82l0,.53,0-.5c0-.89,0-.83,0-1.79C439.15,252,439.12,251.71,439.12,251.17Z" style="fill:#fff"/><path d="M439.05,251.62l0-.76Z" style="fill:#fff"/><polygon points="438.99 249.39 439.02 250.43 439.01 250.23 439.02 250.57 439.02 250.22 438.99 249.39" style="fill:#fff"/><path d="M439,247.09c0,.13,0,0,0,0,0-.26,0-.44,0-.64v0c0-.83,0-1.22,0-1.73v-.09c0-1.4,0-2.06,0-2.22,0,.25,0,1,0,.21,0,.43,0,.72,0,.89,0,.76,0,1.24,0,1.87,0,1.83,0,1.72,0,2.55,0,.39,0,.79,0,1.38v-.34c0,1.22,0,1.18,0,1.68l0-.34c0,.42,0,1.37,0,1.81,0-.66,0,1,0,1.87,0-.79,0-.79,0-2.63v.56c0-1.2,0-.43,0-1.86l0,2.06C439,250,439,249,439,247.09Z" style="fill:#fff"/><path d="M439,248.93v0Z" style="fill:#fff"/><polygon points="439.12 252.96 439.12 253.02 439.11 252.48 439.12 252.96" style="fill:#fff"/></g></g><circle cx="365.04" cy="110.47" r="9.26" style="fill:#b0866d"/><circle cx="365.04" cy="120.86" r="2.58" style="fill:none;stroke:#fff;stroke-miterlimit:10;stroke-width:0.567524699102983px"/><circle cx="365.04" cy="123.44" r="2.58" style="fill:none;stroke:#fff;stroke-miterlimit:10;stroke-width:0.567524699102983px"/><circle cx="365.04" cy="126.03" r="2.58" style="fill:none;stroke:#fff;stroke-miterlimit:10;stroke-width:0.567524699102983px"/><circle cx="365.04" cy="128.61" r="2.58" style="fill:none;stroke:#fff;stroke-miterlimit:10;stroke-width:0.567524699102983px"/><circle cx="365.04" cy="131.2" r="2.58" style="fill:none;stroke:#fff;stroke-miterlimit:10;stroke-width:0.567524699102983px"/><circle cx="365.04" cy="133.78" r="2.58" style="fill:none;stroke:#fff;stroke-miterlimit:10;stroke-width:0.567524699102983px"/><circle cx="365.04" cy="136.37" r="2.58" style="fill:none;stroke:#fff;stroke-miterlimit:10;stroke-width:0.567524699102983px"/><circle cx="365.04" cy="138.95" r="2.58" style="fill:none;stroke:#fff;stroke-miterlimit:10;stroke-width:0.567524699102983px"/><circle cx="365.04" cy="141.54" r="2.58" style="fill:none;stroke:#fff;stroke-miterlimit:10;stroke-width:0.567524699102983px"/><circle cx="365.04" cy="144.12" r="2.58" style="fill:none;stroke:#fff;stroke-miterlimit:10;stroke-width:0.567524699102983px"/><circle cx="365.04" cy="146.71" r="2.58" style="fill:none;stroke:#fff;stroke-miterlimit:10;stroke-width:0.567524699102983px"/><circle cx="365.04" cy="149.29" r="2.58" style="fill:none;stroke:#fff;stroke-miterlimit:10;stroke-width:0.567524699102983px"/><circle cx="365.04" cy="151.88" r="2.58" style="fill:none;stroke:#fff;stroke-miterlimit:10;stroke-width:0.567524699102983px"/><g style="clip-path:url(#clip-path-4)"><rect x="318.55" y="258.17" width="32.32" height="2.52" transform="translate(56.6 578.78) rotate(-86.73)" style="fill:#231f20"/><path d="M336.3,275.7l1.84-32.26.79,0L338,259.33c1.73-1.36,2.68-5.12,3.07-7h0c0,1.88.59,4.33,2,4.6,2.19.41,2.29-3.91,2.44-6.09.21-2.88.2-5.71-2.08-6.13-.38-.08-1.27,0-1.32.85,0,.25.21.52.4.85a2.53,2.53,0,0,1,.36,1.55c-.07,1.27-.8,1.93-1.59,1.88s-1.4-1.19-1.32-2.43a3.69,3.69,0,0,1,4.15-3.61c2.77.16,4.46,3.28,4.18,7.81-.23,3.58-1.9,6.44-4.32,6.62a3.37,3.37,0,0,1-2.18-.73l-1.12,2.29.85,2.37a3.36,3.36,0,0,1,2.25-.48c2.38.45,3.72,3.52,3.56,7.1-.26,4.5-2.3,7.44-5.07,7.28a3.72,3.72,0,0,1-3.71-4.09c.07-1.24.76-2.34,1.59-2.29s1.44.81,1.37,2.08a2.61,2.61,0,0,1-.54,1.5c-.23.3-.48.54-.5.83,0,.76.85,1,1.21,1,2.3.13,2.68-3.5,2.78-6.07.1-2.19.45-6.33-1.74-6.17-1.45.11-2.27,2.48-2.53,4.37h0c-.16-2-.66-5.7-2.25-7.35l-.91,15.88Z" style="fill:#231f20"/><rect x="487.77" y="244.87" width="2.52" height="32.32" transform="matrix(1, 0, 0, 1, -0.4, 0.76)" style="fill:#231f20"/><path d="M486.48,244.87l.05,32.32h-.8l0-15.87c-1.65,1.46-2.38,5.27-2.65,7.18h0c-.15-1.87-.84-4.28-2.29-4.47-2.21-.28-2.06,4-2.08,6.22,0,2.89.14,5.71,2.44,6,.39.06,1.27-.1,1.27-.92,0-.25-.24-.51-.45-.82a2.52,2.52,0,0,1-.45-1.52c0-1.27.68-2,1.48-2s1.46,1.11,1.47,2.35a3.69,3.69,0,0,1-3.93,3.85c-2.77,0-4.65-3-4.63-7.55,0-3.59,1.52-6.54,3.92-6.86a3.37,3.37,0,0,1,2.22.6l1-2.35-1-2.32a3.36,3.36,0,0,1-2.21.61c-2.41-.31-3.92-3.29-4-6.88,0-4.51,1.86-7.56,4.63-7.56a3.72,3.72,0,0,1,3.94,3.87c0,1.24-.62,2.38-1.46,2.38s-1.48-.73-1.49-2a2.61,2.61,0,0,1,.45-1.52c.21-.32.45-.57.45-.86,0-.76-.9-1-1.27-.95-2.3,0-2.47,3.65-2.42,6.23,0,2.19-.08,6.35,2.1,6.06,1.44-.19,2.12-2.61,2.27-4.51h0c.28,2,1,5.65,2.68,7.2l0-15.9Z" style="fill:#231f20"/></g><polygon points="108.52 192.27 75.34 192.27 75.34 184.61 108.52 185.41 108.52 192.27" style="fill:#1420b2"/><ellipse cx="83.19" cy="101.59" rx="69.04" ry="70.47" style="fill:#db5a24"/><path d="M105,159l.87,41.21s27.67,18.45,31.81,20.39,7.1,2.45,12.74,6.16,7.26,49.87,7.26,49.87H21.12s1.17-38.28,2.73-42.29S32,222.79,36.62,220.72s39.74-19.24,39.74-19.24l5.73-35.82Z" style="fill:#cba87d"/><path d="M109.56,199s24,19.74,28.12,21.68,7.1,2.45,12.74,6.16,10.77,49.87,10.77,49.87H16.5s5.79-38.28,7.34-42.29S32,222.79,36.62,220.72s37.08-19,37.08-19l18.94,9.57Z" style="fill:#3e48c0"/><path d="M79.86,179.61a47.74,47.74,0,0,0,25.57-.35L105,159l-22.91,6.61Z" style="fill:#b28e66"/><circle cx="92.03" cy="121" r="47.67" style="fill:#cba87d"/><circle cx="95.34" cy="117.68" r="44.35" style="fill:#ddc497"/><path d="M80.55,125a15.11,15.11,0,1,0,30.22,0Z" style="fill:#e7e9eb"/><path d="M108.52,185.41l1,13.55L95.08,211.52l-1.4,65.15H89.2l1.31-65.41L73.7,201.68l1.64-17.07S84.45,191,85.89,192c3.42,2.41,11.49,2.1,14.88-.31C102.44,190.48,108.52,185.41,108.52,185.41Z" style="fill:#1420b2"/><circle cx="118.14" cy="106.8" r="6.35" style="fill:#3d2722"/><circle cx="74.94" cy="106.8" r="6.35" style="fill:#3d2722"/><path d="M757.2,170l1.54,35.5s27.67,7.45,31.81,9.39,7.1,2.45,12.74,6.16,6.6,55.57,6.6,55.57H673.31s1.84-44,3.4-48,8.12-11.58,12.78-13.66,39.74-8.25,39.74-8.25l5.06-30.11Z" style="fill:#b28e66"/><path d="M767.65,208s18.75,5,22.89,6.95,7.1,2.45,12.74,6.16,10.1,55.57,10.1,55.57H668.7s6.45-44,8-48,8.12-11.58,12.78-13.66,30.21-6.52,30.21-6.52l24.49,23.63Z" style="fill:#5c2e9e"/><path d="M732.05,190.61a47.74,47.74,0,0,0,25.57-.35L757.2,170l-22.91,6.61Z" style="fill:#937150"/><circle cx="744.22" cy="131.99" r="47.67" style="fill:#b28e66"/><circle cx="746.9" cy="128.57" r="44.35" style="fill:#cba87d"/><path d="M733.31,140.7a15.11,15.11,0,1,0,30.22,0Z" style="fill:#e2d3bc"/><circle cx="711.55" cy="147.83" r="1.84" style="fill:#b28e66"/><circle cx="707.1" cy="141.76" r="1.84" style="fill:#b28e66"/><circle cx="722.62" cy="146.79" r="1.84" style="fill:#b28e66"/><circle cx="716.79" cy="143.34" r="1.84" style="fill:#b28e66"/><circle cx="725.46" cy="153.58" r="1.84" style="fill:#b28e66"/><circle cx="728.96" cy="160.26" r="1.84" style="fill:#b28e66"/><circle cx="737.44" cy="162.81" r="1.84" style="fill:#b28e66"/><circle cx="746.46" cy="162.81" r="1.84" style="fill:#b28e66"/><circle cx="752.82" cy="158.78" r="1.84" style="fill:#b28e66"/><circle cx="760.49" cy="154.56" r="1.84" style="fill:#b28e66"/><circle cx="767.8" cy="152.72" r="1.84" style="fill:#b28e66"/><circle cx="774.17" cy="148.26" r="1.84" style="fill:#b28e66"/><circle cx="782.55" cy="145.18" r="1.84" style="fill:#b28e66"/><circle cx="766.98" cy="145.18" r="1.84" style="fill:#b28e66"/><circle cx="773.96" cy="157.27" r="1.84" transform="translate(333.6 812.88) rotate(-67.6)" style="fill:#b28e66"/><circle cx="780.43" cy="152.6" r="1.84" transform="translate(341.92 815.97) rotate(-67.6)" style="fill:#b28e66"/><circle cx="740.97" cy="168.05" r="1.84" transform="translate(176 676.06) rotate(-54.74)" style="fill:#b28e66"/><circle cx="748.82" cy="169.53" r="1.84" transform="translate(178.1 683.1) rotate(-54.74)" style="fill:#b28e66"/><circle cx="723.97" cy="163.23" r="1.84" style="fill:#b28e66"/><circle cx="730.36" cy="148.38" r="1.84" style="fill:#b28e66"/><circle cx="727.66" cy="142.34" r="1.84" style="fill:#b28e66"/><circle cx="733.76" cy="154.56" r="1.84" style="fill:#b28e66"/><circle cx="740.33" cy="157.27" r="1.84" style="fill:#b28e66"/><circle cx="753.59" cy="164.81" r="1.84" style="fill:#b28e66"/><circle cx="758.64" cy="160.79" r="1.84" style="fill:#b28e66"/><circle cx="765.85" cy="159.94" r="1.84" style="fill:#b28e66"/><circle cx="761.02" cy="168.49" r="1.84" style="fill:#b28e66"/><circle cx="770.67" cy="165.21" r="1.84" style="fill:#b28e66"/><circle cx="731.91" cy="166.65" r="1.84" style="fill:#b28e66"/><circle cx="717.67" cy="152.07" r="1.84" style="fill:#b28e66"/><circle cx="720.08" cy="158.25" r="1.84" style="fill:#b28e66"/><rect x="755.44" y="114.25" width="25.15" height="18.73" rx="2.84" ry="2.84" style="fill:#333;stroke:#000;stroke-miterlimit:10;stroke-width:2.83762349551491px"/><rect x="716.38" y="114.25" width="25.15" height="18.73" rx="2.84" ry="2.84" style="fill:#333;stroke:#000;stroke-miterlimit:10;stroke-width:2.83762349551491px"/><line x1="741.59" y1="122.21" x2="755.44" y2="122.21" style="fill:none;stroke:#000;stroke-miterlimit:10;stroke-width:2.83762349551491px"/><line x1="716.38" y1="122.72" x2="702.55" y2="117.08" style="fill:none;stroke:#000;stroke-miterlimit:10;stroke-width:2.83762349551491px"/><line x1="780.7" y1="122.85" x2="790.01" y2="118.09" style="fill:none;stroke:#000;stroke-linecap:round;stroke-miterlimit:10;stroke-width:2.83762349551491px"/><path d="M699.31,81.11l34.8-17.28a2.84,2.84,0,0,1,1.64-.27L774,68.7a2.84,2.84,0,0,1,2.39,2.21l7.08,32.5c-27.35-15.49-66.65-5.15-80,16.23l-6.83.89,1.19-37A2.84,2.84,0,0,1,699.31,81.11Z" style="fill:#4d4d4d"/><path d="M737,108l64-1.09a1.83,1.83,0,0,0,1.15-3.22l-1-.81L782.44,99c-34.22-8.56-65.79-3.5-79.21,20.68l21.62-9.09A32.85,32.85,0,0,1,737,108Z" style="fill:#1a1a1a"/><path d="M736.15,68l37.08,4.53,4.28,23.25c-25.8-9.14-55.59,3-55.59,3Z" style="fill:#fff"/><circle cx="1248.76" cy="83.63" r="20.19" style="fill:#875631"/><circle cx="1234.01" cy="126.27" r="46.66" style="fill:#875631"/><path d="M1219,175.22l-1.45,27.21-30.29,8.13a32.19,32.19,0,0,0-23.22,24.76l-8.3,41.34h25.17l5.18-23.9.93,23.9h94.2l1.44-24.25,4.31,24.25h26.25L1303.93,235a32.19,32.19,0,0,0-23.51-24.17l-33.34-8.44-3.17-25.79Z" style="fill:#ceb89b"/><circle cx="1232.09" cy="131.99" r="47.67" style="fill:#ceb89b"/><circle cx="1229.41" cy="128.57" r="44.35" style="fill:#e2d3bc"/><path d="M1243,140.7a15.11,15.11,0,1,1-30.22,0Z" style="fill:#fff"/><path d="M1258.24,88.82c1.68-4.28,1.19-13.11-33-9.76-31.16,3.06-33.48,15.54-44.44,24.75,4.28.92,5.57,27.86,8.6,21.41C1209.78,81.92,1256.12,94.24,1258.24,88.82Z" style="fill:#875631"/><circle cx="1249.25" cy="121.38" r="5.71" style="fill:#3d2722"/><circle cx="1209.37" cy="121.38" r="5.71" style="fill:#3d2722"/><ellipse cx="1277.35" cy="126.31" rx="6.59" ry="11.57" style="fill:#e2d3bc"/><g style="clip-path:url(#clip-path-5)"><rect x="1266.69" y="184.12" width="14.31" height="111.63" transform="translate(2547.7 479.86) rotate(-180)" style="fill:#d71c24"/><rect x="1245.23" y="184.12" width="14.31" height="111.63" transform="translate(2504.77 479.86) rotate(-180)" style="fill:#006838"/><rect x="1259.54" y="184.12" width="7.15" height="111.63" transform="translate(2526.23 479.86) rotate(-180)" style="fill:#a51c24"/><rect x="1238.84" y="184.12" width="7.15" height="111.63" transform="translate(2484.84 479.86) rotate(-180)" style="fill:#fff"/><rect x="1238.84" y="184.12" width="7.15" height="111.63" transform="translate(2484.84 479.86) rotate(-180)" style="fill:#d0d0d0"/><rect x="1308.85" y="184.12" width="14.31" height="111.63" transform="translate(2632.02 479.86) rotate(-180)" style="fill:#d71c24"/><rect x="1287.39" y="184.12" width="14.31" height="111.63" transform="translate(2589.09 479.86) rotate(-180)" style="fill:#006838"/><rect x="1301.7" y="184.12" width="7.15" height="111.63" transform="translate(2610.55 479.86) rotate(-180)" style="fill:#a51c24"/><rect x="1281" y="184.12" width="7.15" height="111.63" transform="translate(2569.16 479.86) rotate(-180)" style="fill:#fff"/><rect x="1281" y="184.12" width="7.15" height="111.63" transform="translate(2569.16 479.86) rotate(-180)" style="fill:#d0d0d0"/><rect x="1182.44" y="184.12" width="14.31" height="111.63" transform="translate(2379.18 479.86) rotate(-180)" style="fill:#d71c24"/><rect x="1160.97" y="184.12" width="14.31" height="111.63" transform="translate(2336.25 479.86) rotate(-180)" style="fill:#006838"/><rect x="1175.28" y="184.12" width="7.15" height="111.63" transform="translate(2357.72 479.86) rotate(-180)" style="fill:#a51c24"/><rect x="1154.59" y="184.12" width="7.15" height="111.63" transform="translate(2316.33 479.86) rotate(-180)" style="fill:#fff"/><rect x="1154.59" y="184.12" width="7.15" height="111.63" transform="translate(2316.33 479.86) rotate(-180)" style="fill:#d0d0d0"/><rect x="1224.6" y="184.12" width="14.31" height="111.63" transform="translate(2463.51 479.86) rotate(-180)" style="fill:#d71c24"/><rect x="1203.13" y="184.12" width="14.31" height="111.63" transform="translate(2420.58 479.86) rotate(-180)" style="fill:#006838"/><rect x="1217.44" y="184.12" width="7.15" height="111.63" transform="translate(2442.04 479.86) rotate(-180)" style="fill:#a51c24"/><rect x="1196.75" y="184.12" width="7.15" height="111.63" transform="translate(2400.65 479.86) rotate(-180)" style="fill:#fff"/><rect x="1196.75" y="184.12" width="7.15" height="111.63" transform="translate(2400.65 479.86) rotate(-180)" style="fill:#d0d0d0"/><rect x="1233.82" y="126.34" width="8.36" height="172.29" transform="translate(1450.48 -1025.51) rotate(90)" style="fill:#ff0;mix-blend-mode:multiply"/><rect x="1233.82" y="134.7" width="8.36" height="172.29" transform="translate(1458.84 -1017.16) rotate(90)" style="fill:#49a8f6;mix-blend-mode:multiply"/><rect x="1233.82" y="163.7" width="8.36" height="172.29" transform="translate(1487.84 -988.15) rotate(90)" style="fill:#ff0;mix-blend-mode:multiply"/><rect x="1233.82" y="172.06" width="8.36" height="172.29" transform="translate(1496.2 -979.79) rotate(90)" style="fill:#49a8f6;mix-blend-mode:multiply"/></g><path d="M236.23,90.46a58.19,58.19,0,0,0,50.9-30.39,60,60,0,0,1,20.63,45.45c0,32.92-26.15,59.6-58.4,59.6S191,138.44,191,105.52a60.26,60.26,0,0,1,7.5-29.21A57.46,57.46,0,0,0,236.23,90.46Z" style="fill:#603813"/><path d="M228.1,155.9,227.21,198S199,216.82,194.73,218.8s-7.25,2.5-13,6.29S174.3,276,174.3,276H313.76s-1.2-39.09-2.79-43.19-8.29-11.82-13-13.95-40.58-19.65-40.58-19.65l-5.85-36.58Z" style="fill:#d6b37d"/><circle cx="241.34" cy="117.06" r="48.68" style="fill:#d6b37d"/><circle cx="237.96" cy="113.67" r="45.29" style="fill:#e8cfa2"/><path d="M252.48,124.89a15.43,15.43,0,0,1-30.86,0Z" style="fill:#d6b37d"/><path d="M226.68,183.68l-3.24,13S199,216.82,194.73,218.8s-7.25,2.5-13,6.29-11,50.92-11,50.92H318.47s-5.91-39.09-7.5-43.19-8.29-11.82-13-13.95-37.86-19.44-37.86-19.44l-4.52-16.36s-7.52,3.54-14.77,3.54A40.58,40.58,0,0,1,226.68,183.68Z" style="fill:#004c3d"/><path d="M237.06,82.38c-14.37-1-35.55,4.4-38.59-6.08a58.19,58.19,0,0,1,50.9-30.39,57.46,57.46,0,0,1,37.77,14.16C281.62,83.23,262.94,84.14,237.06,82.38Z" style="fill:#754c24"/><circle cx="216.55" cy="102.09" r="4.5" style="fill:#242778"/><circle cx="254.42" cy="102.09" r="4.5" style="fill:#242778"/><path d="M241.78,97.35a12.24,12.24,0,0,0-11.86.09" style="fill:none;stroke:#000;stroke-miterlimit:10;stroke-width:3.4051481946179px"/><path d="M254.42,90.18A12.22,12.22,0,1,1,242.2,102.4a12.22,12.22,0,0,1,12.22-12.22m0-3.41A15.62,15.62,0,1,0,270,102.4a15.64,15.64,0,0,0-15.62-15.62Z"/><path d="M217,90.18a12.22,12.22,0,1,1-12.22,12.22A12.22,12.22,0,0,1,217,90.18m0-3.41a15.62,15.62,0,1,0,15.62,15.62A15.64,15.64,0,0,0,217,86.78Z"/><line x1="268.33" y1="102.4" x2="290.87" y2="102.4" style="fill:none;stroke:#000;stroke-linecap:round;stroke-miterlimit:10;stroke-width:3.4051481946179px"/><line x1="192.67" y1="102.4" x2="202.39" y2="102.4" style="fill:none;stroke:#000;stroke-linecap:round;stroke-miterlimit:10;stroke-width:3.4051481946179px"/><circle cx="287.95" cy="108.88" r="9.45" style="fill:#e8cfa2"/><path d="M288.45,115.88a7,7,0,0,0,0-14Z" style="fill:#d6b37d"/><path d="M288.39,112.54a3.52,3.52,0,0,0,0-7Z" style="fill:#e8cfa2"/></g></g></svg>
